<?xml version="1.0" encoding="UTF-8"?>
<svg id="_レイヤー_2" data-name="レイヤー 2" xmlns="http://www.w3.org/2000/svg" xmlns:xlink="http://www.w3.org/1999/xlink" viewBox="0 0 628 158">
  <defs>
    <style>
      .cls-1, .cls-2, .cls-3 {
        stroke-width: 0px;
      }

      .cls-2 {
        fill: none;
      }

      .cls-4 {
        clip-path: url(#clippath-1);
      }

      .cls-3 {
        clip-rule: evenodd;
      }

      .cls-5 {
        clip-path: url(#clippath);
      }

      .cls-6 {
        fill-rule: evenodd;
      }
    </style>
    <clipPath id="clippath">
      <path class="cls-3" d="m600.73,118.27l-11.01-26.29-10.9,26.29h-18.76l19.55-41.68-17.97-37.86h18.76l9.77,24.15,9.89-24.15h18.42l-18.09,37.75,19.77,41.79h-19.44Zm-58.99-39.99c0-3.45-.26-6.65-.79-9.61-.52-2.96-1.29-5.52-2.3-7.7-1.01-2.17-2.27-3.88-3.76-5.11s-3.26-1.85-5.28-1.85-3.8.62-5.34,1.85c-1.54,1.24-2.81,2.94-3.82,5.11-1.01,2.17-1.76,4.74-2.25,7.7-.49,2.96-.73,6.16-.73,9.61s.24,6.67.73,9.66c.49,3,1.24,5.58,2.25,7.75,1.01,2.17,2.28,3.89,3.82,5.17,1.54,1.27,3.31,1.91,5.34,1.91s3.78-.64,5.28-1.91c1.5-1.27,2.75-3,3.76-5.17,1.01-2.17,1.78-4.76,2.3-7.75.52-3,.79-6.22.79-9.66Zm18.42,0c0,6.29-.71,12.04-2.13,17.24-1.42,5.21-3.45,9.64-6.07,13.31-2.62,3.67-5.82,6.52-9.61,8.54-3.78,2.02-8.03,3.03-12.75,3.03s-8.97-1.01-12.75-3.03c-3.78-2.02-6.98-4.87-9.61-8.54-2.62-3.67-4.64-8.11-6.07-13.31-1.42-5.21-2.13-10.95-2.13-17.24s.69-12,2.08-17.13c1.39-5.13,3.39-9.51,6.01-13.14,2.62-3.63,5.82-6.44,9.61-8.43,3.78-1.98,8.07-2.98,12.86-2.98s8.97.99,12.75,2.98c3.78,1.98,6.98,4.79,9.61,8.43,2.62,3.63,4.64,8.01,6.07,13.14,1.42,5.13,2.13,10.84,2.13,17.13Zm-83.71,15.62c0-1.8-.28-3.31-.84-4.55-.56-1.24-1.31-2.25-2.25-3.03-.94-.79-1.98-1.37-3.15-1.74s-2.3-.56-3.43-.56h-6.52v19.32h6.74c2.62,0,4.85-.79,6.68-2.36,1.83-1.57,2.75-3.93,2.75-7.08Zm-1.46-31.79c0-3.07-.86-5.24-2.58-6.52s-3.74-1.91-6.07-1.91h-6.07v17.19h6.18c2.17,0,4.14-.67,5.9-2.02,1.76-1.35,2.64-3.59,2.64-6.74Zm18.54,33.48c0,4.27-.69,7.85-2.08,10.73-1.39,2.88-3.2,5.21-5.45,6.97-2.25,1.76-4.77,3.03-7.58,3.82-2.81.79-5.64,1.18-8.48,1.18h-26.4V38.73h23.82c2.47,0,5.09.26,7.86.79,2.77.52,5.3,1.52,7.58,2.98,2.28,1.46,4.19,3.54,5.73,6.24,1.54,2.7,2.3,6.18,2.3,10.45,0,4.72-.95,8.48-2.86,11.29-1.91,2.81-4.25,4.85-7.02,6.12v.22c1.5.37,3,1.05,4.49,2.02,1.5.97,2.85,2.23,4.04,3.76s2.17,3.39,2.92,5.56c.75,2.17,1.12,4.64,1.12,7.41Zm-81.02,22.69l-18.42-48.42h-.34l.45,48.42h-16.07V38.73h19.77l18.31,49.09h.34l-.34-49.09h15.5v79.54h-19.21Zm-71.23-62.24h-.45l-6.74,33.82h13.59l-6.4-33.82Zm11.91,62.24l-3.26-14.49h-17.86l-3.26,14.49h-17.97l19.32-79.54h22.58l19.21,79.54h-18.76Zm-61.68-63.25v16.18h18.99v15.39h-18.87v31.68h-18.2V38.73h38.76v16.29h-20.67Zm-65.05,63.25h-22.81l-19.21-79.54h20.33l10.78,58.19h.22l10.67-58.19h19.55l-19.55,79.54Zm-67.07,0V38.73h18.09v79.54h-18.09Zm-26.74,0l-11.01-26.29-10.9,26.29h-18.76l19.55-41.68-17.97-37.86h18.76l9.77,24.15,9.89-24.15h18.42l-18.09,37.75,19.77,41.79h-19.44Zm-66.17,0V38.73h18.09v79.54h-18.09Zm-26.4-54.26c0-3.6-.86-6.18-2.58-7.75-1.72-1.57-3.82-2.36-6.29-2.36h-5.73v20.78h5.73c2.47,0,4.57-.92,6.29-2.75,1.72-1.83,2.58-4.47,2.58-7.92Zm16.85-.34c0,4.42-.67,8.24-2.02,11.46-1.35,3.22-3.15,5.88-5.39,7.98-2.25,2.1-4.79,3.65-7.64,4.66s-5.73,1.52-8.65,1.52h-7.75v28.98H7.84V38.73h24.72c2.85,0,5.71.41,8.59,1.24,2.88.82,5.5,2.19,7.86,4.1,2.36,1.91,4.27,4.47,5.73,7.7,1.46,3.22,2.19,7.19,2.19,11.91Z"/>
    </clipPath>
    <clipPath id="clippath-1">
      <rect class="cls-1" x="-185.61" y="-498.06" width="998.61" height="2528.5"/>
    </clipPath>
  </defs>
  <g id="PIXIV_FANBOX" data-name="PIXIV FANBOX">
    <g>
      <path class="cls-6" d="m600.73,118.27l-11.01-26.29-10.9,26.29h-18.76l19.55-41.68-17.97-37.86h18.76l9.77,24.15,9.89-24.15h18.42l-18.09,37.75,19.77,41.79h-19.44Zm-58.99-39.99c0-3.45-.26-6.65-.79-9.61-.52-2.96-1.29-5.52-2.3-7.7-1.01-2.17-2.27-3.88-3.76-5.11s-3.26-1.85-5.28-1.85-3.8.62-5.34,1.85c-1.54,1.24-2.81,2.94-3.82,5.11-1.01,2.17-1.76,4.74-2.25,7.7-.49,2.96-.73,6.16-.73,9.61s.24,6.67.73,9.66c.49,3,1.24,5.58,2.25,7.75,1.01,2.17,2.28,3.89,3.82,5.17,1.54,1.27,3.31,1.91,5.34,1.91s3.78-.64,5.28-1.91c1.5-1.27,2.75-3,3.76-5.17,1.01-2.17,1.78-4.76,2.3-7.75.52-3,.79-6.22.79-9.66Zm18.42,0c0,6.29-.71,12.04-2.13,17.24-1.42,5.21-3.45,9.64-6.07,13.31-2.62,3.67-5.82,6.52-9.61,8.54-3.78,2.02-8.03,3.03-12.75,3.03s-8.97-1.01-12.75-3.03c-3.78-2.02-6.98-4.87-9.61-8.54-2.62-3.67-4.64-8.11-6.07-13.31-1.42-5.21-2.13-10.95-2.13-17.24s.69-12,2.08-17.13c1.39-5.13,3.39-9.51,6.01-13.14,2.62-3.63,5.82-6.44,9.61-8.43,3.78-1.98,8.07-2.98,12.86-2.98s8.97.99,12.75,2.98c3.78,1.98,6.98,4.79,9.61,8.43,2.62,3.63,4.64,8.01,6.07,13.14,1.42,5.13,2.13,10.84,2.13,17.13Zm-83.71,15.62c0-1.8-.28-3.31-.84-4.55-.56-1.24-1.31-2.25-2.25-3.03-.94-.79-1.98-1.37-3.15-1.74s-2.3-.56-3.43-.56h-6.52v19.32h6.74c2.62,0,4.85-.79,6.68-2.36,1.83-1.57,2.75-3.93,2.75-7.08Zm-1.46-31.79c0-3.07-.86-5.24-2.58-6.52s-3.74-1.91-6.07-1.91h-6.07v17.19h6.18c2.17,0,4.14-.67,5.9-2.02,1.76-1.35,2.64-3.59,2.64-6.74Zm18.54,33.48c0,4.27-.69,7.85-2.08,10.73-1.39,2.88-3.2,5.21-5.45,6.97-2.25,1.76-4.77,3.03-7.58,3.82-2.81.79-5.64,1.18-8.48,1.18h-26.4V38.73h23.82c2.47,0,5.09.26,7.86.79,2.77.52,5.3,1.52,7.58,2.98,2.28,1.46,4.19,3.54,5.73,6.24,1.54,2.7,2.3,6.18,2.3,10.45,0,4.72-.95,8.48-2.86,11.29-1.91,2.81-4.25,4.85-7.02,6.12v.22c1.5.37,3,1.05,4.49,2.02,1.5.97,2.85,2.23,4.04,3.76s2.17,3.39,2.92,5.56c.75,2.17,1.12,4.64,1.12,7.41Zm-81.02,22.69l-18.42-48.42h-.34l.45,48.42h-16.07V38.73h19.77l18.31,49.09h.34l-.34-49.09h15.5v79.54h-19.21Zm-71.23-62.24h-.45l-6.74,33.82h13.59l-6.4-33.82Zm11.91,62.24l-3.26-14.49h-17.86l-3.26,14.49h-17.97l19.32-79.54h22.58l19.21,79.54h-18.76Zm-61.68-63.25v16.18h18.99v15.39h-18.87v31.68h-18.2V38.73h38.76v16.29h-20.67Zm-65.05,63.25h-22.81l-19.21-79.54h20.33l10.78,58.19h.22l10.67-58.19h19.55l-19.55,79.54Zm-67.07,0V38.73h18.09v79.54h-18.09Zm-26.74,0l-11.01-26.29-10.9,26.29h-18.76l19.55-41.68-17.97-37.86h18.76l9.77,24.15,9.89-24.15h18.42l-18.09,37.75,19.77,41.79h-19.44Zm-66.17,0V38.73h18.09v79.54h-18.09Zm-26.4-54.26c0-3.6-.86-6.18-2.58-7.75-1.72-1.57-3.82-2.36-6.29-2.36h-5.73v20.78h5.73c2.47,0,4.57-.92,6.29-2.75,1.72-1.83,2.58-4.47,2.58-7.92Zm16.85-.34c0,4.42-.67,8.24-2.02,11.46-1.35,3.22-3.15,5.88-5.39,7.98-2.25,2.1-4.79,3.65-7.64,4.66s-5.73,1.52-8.65,1.52h-7.75v28.98H7.84V38.73h24.72c2.85,0,5.71.41,8.59,1.24,2.88.82,5.5,2.19,7.86,4.1,2.36,1.91,4.27,4.47,5.73,7.7,1.46,3.22,2.19,7.19,2.19,11.91Z"/>
      <g class="cls-5">
        <g>
          <rect x="-185.61" y="-498.06" width="998.61" height="2528.5"/>
          <g class="cls-4">
            <rect class="cls-1" x="3.94" y="32.7" width="620.13" height="91.61"/>
          </g>
        </g>
      </g>
    </g>
    <rect class="cls-2" width="628" height="158"/>
  </g>
</svg>