<?xml version="1.0" encoding="UTF-8"?>
<svg id="_レイヤー_2" data-name="レイヤー 2" xmlns="http://www.w3.org/2000/svg" viewBox="0 0 999.57 421.36">
  <defs>
    <style>
      .cls-1 {
        fill: #0068b7;
      }

      .cls-1, .cls-2 {
        stroke-width: 0px;
      }

      .cls-2 {
        fill: #393939;
      }
    </style>
  </defs>
  <g id="_レイヤー_1-2" data-name="レイヤー 1">
    <path class="cls-1" d="m358.47,20.57l-19.94,19.94-17.08-17.08-17.2-17.08-5.61,5.48-5.61,5.48,22.68,22.81,22.81,22.81,20.19-20.19,20.32-20.32,20.19,20.32,20.32,20.19,20.07-20.07,20.07-20.07,20.07,20.32,20.19,20.32,20.19-20.32,20.07-20.32,20.07,20.07,20.07,20.07,20.32-20.19,20.19-20.32,20.32,20.32,20.19,20.19,22.81-22.81,22.68-22.81-5.61-5.48-5.61-5.48-16.58,16.45c-9.1,9.1-17.08,16.45-17.7,16.45s-10.1-8.85-20.82-19.57l-19.69-19.69-20.32,20.32-20.19,20.19-19.94-19.94L540.32.5l-19.82,19.44c-10.97,10.59-20.19,19.32-20.57,19.32s-9.6-8.72-20.57-19.32L459.55.5l-20.07,20.07-19.94,19.94-19.94-19.94c-10.97-10.97-20.19-19.94-20.57-19.94s-9.6,8.97-20.57,19.94h0Z"/>
    <path class="cls-2" d="m57.34,148.2c-17.82,4.74-27.55,18.2-30.91,42.63-.75,5.11-1.37,27.3-1.37,49.11v39.76l-12.09.37-12.21.37-.37,7.1-.37,7.23h25.05l.25,61.95.37,62.07,7.85.37,7.73.37v-124.77h47.36v-14.96h-47.61l.62-45.24c.5-49.23,1.12-53.85,7.98-63.69,1.87-2.74,5.98-6.23,9.1-7.85,4.74-2.49,6.98-2.99,13.71-2.49,4.49.25,9.22.87,10.59,1.37,1.99.62,2.99-.12,5.36-4.24,1.62-2.74,2.49-5.61,2.12-6.23-1.25-2.12-13.34-4.99-20.44-4.86-3.86,0-9.6.75-12.71,1.62h0Zm623.96-.12c-15.83,4.11-25.18,14.46-30.04,33.53-1.62,6.36-2.24,16.7-2.62,52.97l-.62,45.24h-23.43v14.96h23.68l.25,61.95.37,62.07,7.73.37,7.85.37.25-62.07.37-62.07,23.43-.37,23.31-.25v-14.96h-47.61l.62-44.62c.62-48.36,1.12-52.6,7.98-63.57,5.11-8.35,12.21-11.72,23.43-11.09,4.86.25,9.6.87,10.59,1.37,1.37.5,2.87-.87,5.23-4.74l3.37-5.48-5.23-2.24c-6.73-2.74-20.94-3.37-28.92-1.37h0Zm-504.8,128.13c-45.99,4.36-73.79,42.38-64.94,88.62,5.86,30.41,28.79,51.98,59.45,55.71,22.44,2.87,42.25-2.87,59.33-17.08,3.99-3.37,7.98-7.6,8.97-9.35,1-1.87,2.24-3.37,2.74-3.37.62,0,1.25,6.36,1.37,13.96l.37,14.08h14.96l.37-69.55.25-69.55-7.1.37-7.23.37-.62,13.34c-.37,7.35-1,13.71-1.37,13.96-.37.37-3.49-2.74-6.86-7.1-7.73-9.6-19.94-18.2-31.16-21.69-10.35-3.24-16.95-3.86-28.54-2.74h0Zm25.8,16.08c16.2,4.99,29.04,16.08,36.4,31.16,3.49,7.23,3.86,9.6,4.24,21.31.75,21.81-4.61,36.15-17.82,48.11-41.01,37.02-105.82,1.75-98.09-53.47,3.24-23.18,18.32-41.26,39.39-47.24,10.59-2.99,25.8-2.99,35.9.12h0Zm596.54-16.2c-16.2,2.87-29.29,9.85-40.88,21.44-13.96,14.21-19.94,27.55-20.82,47.11-.87,16.58.75,24.55,7.73,38.51,8.85,17.45,21.06,27.8,41.13,34.4,12.59,4.24,32.91,4.86,44.75,1.37,7.85-2.37,20.19-8.1,26.05-12.21l3.37-2.37-3.74-5.61c-2.12-2.99-4.36-5.48-4.86-5.48-.62,0-3.99,1.99-7.6,4.36-10.35,6.98-21.31,9.72-36.52,9.1-11.22-.37-13.71-1-20.94-4.49-4.61-2.24-11.09-6.48-14.58-9.6-7.35-6.61-15.08-17.95-12.96-19.19.75-.37,27.42-10.84,59.33-23.18,38.39-14.71,58.08-22.93,58.08-24.06,0-3.12-7.35-17.2-12.96-24.93-8.35-11.22-21.94-20.69-34.4-23.68-8.23-1.99-23.43-2.74-30.16-1.5h0Zm21.94,14.33c11.59,1.87,27.67,14.08,34.78,26.55l2.12,3.74-33.9,13.34c-18.7,7.35-41.63,16.45-50.85,20.07-9.22,3.74-17.45,6.73-18.2,6.73-1.99,0-2.87-11.47-1.62-21.81,2.24-18.32,14.46-35.27,31.53-43.62,12.09-5.98,21.56-7.23,36.15-4.99h0Zm-441.48-11.84c-5.11,1.37-12.34,4.36-16.33,6.73-7.6,4.74-17.82,14.83-20.32,20.07-2.37,5.23-3.49,3.49-3.49-5.48,0-4.61-.37-11.09-.75-14.33l-.87-5.73h-13.34v139.72l7.85-.37,7.73-.37.62-43.62c.62-37.64,1-44.37,2.87-49.23,3.61-9.1,7.73-15.33,14.46-21.56,21.56-20.19,54.09-18.82,64.56,2.62l3.49,7.1.62,52.35.62,52.35,7.85.37,7.85.37-.37-56.46-.37-56.46-3.24-6.98c-4.24-8.85-10.84-15.58-19.69-19.69-9.47-4.36-26.42-4.99-39.76-1.37h0Zm150.57-.87c-18.95,4.24-30.16,17.7-30.29,36.27-.12,19.82,9.6,29.42,40.63,40.26,15.21,5.23,19.07,7.1,23.68,11.47,5.36,4.86,7.1,9.22,7.1,16.95,0,17.33-12.46,26.3-35.02,25.43-11.47-.5-19.94-3.74-29.17-11.09-2.62-2.12-5.11-3.74-5.61-3.74s-2.49,2.24-4.36,4.99c-3.99,5.73-3.61,6.48,5.11,12.59,12.09,8.23,30.41,12.09,47.49,9.97,17.82-2.24,27.3-8.6,34.15-23.06,3.12-6.48,3.61-9.1,3.61-17.57-.12-20.19-7.98-28.29-38.02-39.26-15.08-5.48-24.18-10.22-28.67-14.83-3.12-3.37-3.74-5.11-4.11-11.72-.5-10.22,2.12-14.96,11.09-20.07,5.98-3.49,7.85-3.86,16.7-3.86,12.21,0,21.44,2.99,27.55,8.72l4.36,4.11,3.24-5.11c3.74-5.86,3.24-7.35-4.11-12.21-11.72-7.85-31.29-11.47-45.37-8.23h0Zm455.19.12c-16.2,3.99-36.89,18.7-41.38,29.29-.87,2.12-1.99,3.86-2.49,3.86s-1.37-6.98-1.87-15.58l-.87-15.58h-13.46v139.72l7.85-.37,7.73-.37.62-43.62.62-43.62,3.49-7.1c4.24-8.72,12.71-18.2,20.44-23.18,7.1-4.49,21.06-8.97,27.92-8.97h4.86v-5.36c0-2.87.37-6.48.75-8.1.75-2.49.37-2.74-3.37-2.62-2.37,0-7.23.75-10.84,1.62Z"/>
  </g>
</svg>