<svg
   xmlns="http://www.w3.org/2000/svg"
   width="1000"
   height="1000">
  <rect
     width="1000"
     height="1000"
     fill="#FAF18A"
     rx="88.405556"
     ry="87.944443" />
  <path
     fill="#FFFFFF"
     d="m 209.81667,341.4 c 3.55555,-9.20556 -6.77778,-19.40556 0.65555,-28.94444 C 220.93889,299 232.81667,286.81667 242.43889,272.61667 a 117.61111,117.61111 0 0 1 36.82778,-34.89445 C 327.56111,208.65556 381.5,190.01111 437.14444,179.95556 c 39.03334,-7.05556 79.22223,-7.72778 118.46112,-2.61112 14.70555,1.92223 27.60555,20.72223 41.19444,14.91667 16.04444,-6.84444 17.97778,-26.32222 29.96667,-37.59444 C 636.64444,145.37778 645.8,131.53889 659.25,130.2 c 13,-1.3 21.73889,11.23889 23.7,22.97778 1.96667,11.77778 4.93333,24.52778 1.00556,35.73889 -5.55556,15.88889 -39.95,26.18889 -29.95556,39.11111 7.87222,10.18333 18.38333,19.13333 25.70556,30.30555 10.42222,15.9 20.40555,31.93334 32.72222,46.72223 7.56666,9.08888 11.85555,20.22222 19.81666,29.22222 10.84445,12.26111 8.16667,33.75555 22.15,42.45555 9.27223,5.77778 8.12778,24.4 18.45556,24.85 8.26111,0.36111 13.73889,-13.5 20.91111,-18.87222 8.25556,-6.18333 20.02222,-10.61111 29.66111,-7.46667 11.38334,3.71667 13.44445,17.06667 16.40556,27.08889 5.66666,19.18334 3.25555,39.82778 -0.93334,58.96111 -4.24444,19.38334 -36.72222,37.80556 -24.15,54.72223 5.14445,6.93333 9.92778,15.45555 15.2,22.88889 6.40556,9.02222 10.70556,19.17777 12.98889,30.02777 2.15,10.23889 6.55556,19.47223 10.63334,29.2 7.93333,18.96111 9.72222,39.57223 14.30555,59.49445 6.67778,28.98333 16.05556,60.92222 4.47222,89.28889 -4.73333,11.59444 -9.02777,25.9 -20.84444,31.74444 -12.12778,6 -28.55556,-15.76667 -35.83333,-0.97778 -6.86111,13.95 -4.07223,32.25556 -16.38334,43.56111 -8.63333,7.92778 -20.61111,11.99445 -31.98889,12.60556 -15.31111,0.82222 -35.58888,-30.05 -41.02222,-16.43333 -3.52778,8.85555 -3.75,18.43889 -8.17778,28.08889 A 35.805556,35.805556 0 0 1 688.35,866.17222 c -12.50556,0.92778 -27,6.47222 -37.86111,-0.41666 C 636.5,856.88889 623.64444,818.13333 614.87778,831.88889 606.60556,844.85 605.72222,864.31667 592.2,872.53333 c -12.25,7.44445 -27.60556,3.01111 -40.13333,-1.47222 -15.57223,-5.57778 -31.61111,-12.68333 -41.9,-25.77778 -5.68889,-7.25 -10,-5.41666 -15.67778,2.03334 -6.47222,8.5 -8.83333,27.41666 -19.35,25.65 -10.33889,-1.74445 -20.68889,3.52222 -31.07222,2.14444 -11.55556,-1.53333 -20.93334,-9.76667 -27.58889,-18.55555 -9.04445,-11.94445 -18.9,3.35 -23.75,10.87222 -5.91667,9.17778 -13.98334,15.31111 -25.25556,18.34444 -16.77778,4.51667 -34.22222,-0.63333 -48.73333,-9.95555 a 183.66667,183.66667 0 0 1 -33.88889,-27.9 c -10.85556,-11.38889 -18.38889,-25.22223 -23.86667,-40.02223 -5.65,-15.25 -11.31666,-30.28888 -18.56111,-45.11666 -8.61111,-17.62222 -10.52778,-37.57778 -19.86111,-55.03334 -14.83333,-27.73888 -17.37778,-59.6 -21.95,-90.12222 -4.95,-33.03889 -12.05555,-65.9 -13.75,-99.29444 -1.63333,-32.15556 -8.62778,-66.35556 2.91111,-96.34445 3.67778,-9.56111 3.53334,-19.15555 -10.17778,-21.15555 C 162.57778,398.35 144.35556,397.41111 130.1,386.14444 119.95,378.12778 108.26111,371.41111 100.36667,361.20556 92.2,350.65 89.672222,335.88889 92.85,323.60556 c 2.983333,-11.52223 15.75556,-14.61112 26.06667,-15.73334 19.55555,-2.13333 38.98333,4.45556 55.86111,13.36667 11.03333,5.82222 18.92778,16.95555 31.13333,20.51667 l 2.01667,0.0833 z" />
  <path
     d="m 339.74444,892.66667 c -20.53333,-3 -39.51666,-11.78889 -51.3,-23.75556 C 284.59444,865 272.41667,849.8 268.28889,843.75 a 81.055556,81.055556 0 0 1 -4.36667,-7.55556 c -2.53333,-5.03888 -12.70555,-30.95555 -18.35555,-46.78333 a 3017.1333,3017.1333 0 0 0 -10.5,-28.65 C 210.54444,694.8 209.13889,690.57778 204.5,668.96111 203.12222,662.54444 200.93333,653.85 199.63889,649.65 c -4.65,-15.07778 -7.3,-27.37778 -8.38889,-38.88889 -0.57778,-6.11111 -1.96667,-18.76667 -3.08333,-28.12222 a 2357,2357 0 0 1 -2.79445,-24.30556 405.3,405.3 0 0 0 -2.72222,-19.1 c -3.26111,-19.56111 -3.74444,-28.57222 -3.26667,-60.70555 0.47223,-31.48334 1.23889,-41.15 4.7,-59.33889 1.15,-6.05556 1.9,-11.21667 1.65556,-11.45556 -0.23889,-0.24444 -6.11111,-0.64444 -13.05556,-0.88889 -17.97777,-0.63333 -26.33333,-2.58333 -38.74444,-9.05555 a 104.36111,104.36111 0 0 1 -11.91111,-7.40556 C 113.41111,383.91111 100.7,372.23889 97.394444,367.75 88.022222,355.03333 83.955556,340.25 84.972222,322.56667 c 0.716667,-12.51667 1.927778,-14.73889 9.266667,-17 15.705551,-4.85556 45.288891,-2.65556 71.733331,5.32777 11.87778,3.58334 17.96667,6.17778 26.59445,11.33889 l 7.77777,4.65 0.75,-3.54444 C 202.65,315.96111 206.75,306.5 211.75,298.78333 c 5.61111,-8.67777 37.75556,-41.98889 49.66667,-51.48333 13.63333,-10.86111 47.15555,-31.53889 62.77777,-38.72778 23.81112,-10.95555 28.73334,-12.80555 56.26112,-21.14444 23.78888,-7.2 36.63888,-10.48889 51.14444,-13.07778 a 815.27778,815.27778 0 0 0 17.01111,-3.19444 c 4.22222,-0.88334 12.61111,-1.16667 44.1,-1.47778 55.97222,-0.56667 67.69445,0.46666 88.88889,7.83889 4.96111,1.72777 10.51111,3.64444 12.32222,4.26111 l 3.29445,1.12222 2.13889,-2.03889 c 3.44444,-3.29444 11.55555,-14.25 21.28888,-28.77778 9.85,-14.70555 18.71112,-25.74444 24.33334,-30.33333 4.55555,-3.71111 8.15,-4.37222 14.47222,-2.65556 18.76111,5.07778 31.08889,28 30.98889,57.63889 -0.0333,10.62778 -1.42222,16.94445 -5.69445,25.88334 -4.20555,8.79444 -8.58333,15.07222 -14.46111,20.72222 l -5.35555,5.15 4.97222,4.67778 c 12.21111,11.49444 42.38333,52.28889 58.82222,79.52777 3.48334,5.76667 20.24445,38.02778 33.98889,65.41667 l 8.35556,16.65 5.58333,-6.23333 c 7.83333,-8.74445 17.26667,-17.95556 21.05556,-20.56111 5.22222,-3.6 9.17777,-4.77223 16.07222,-4.77223 7.18889,0 9.8,1.05556 16.91111,6.82223 8.29444,6.73333 11.79444,12.77777 15.21667,26.32222 3.49444,13.83889 4.15,19.72222 4.24444,37.94444 0.0833,17.04445 -0.44444,22.43889 -3.34444,34.11667 -2.20556,8.87222 -6.89445,20.7 -13.51667,34.07778 -3.79445,7.66111 -6.9,14.16666 -6.9,14.44444 0,0.28334 2.21111,3.85556 4.91111,7.94445 11.77778,17.81666 26.83333,54.15555 34.58333,83.46666 1.16111,4.38889 3.97223,13.45556 6.25,20.13889 6.71111,19.69445 12.47223,38.56111 13.62223,44.61111 2.65555,14 3.08333,47.61111 0.72222,56.39445 -2.13889,7.92778 -10.63334,26.15 -16.2,34.72778 -3.91667,6.05 -13.13334,15.19444 -18.55556,18.42777 -9.2,5.47223 -16.41111,6.58334 -28.65,4.39445 -5.62222,-1 -6.60555,-1.02778 -7.14444,-0.17222 -0.34445,0.54444 -0.63334,4.66111 -0.63889,9.14444 -0.0167,11.65556 -1.71111,15.53333 -11.33333,25.92778 -5.21667,5.62222 -9.79445,8.33333 -18.53889,10.97222 -10.4,3.13889 -17.75556,4.03889 -30.83334,3.78889 -11.25,-0.22222 -12.08889,-0.33333 -15.94444,-2.13889 -2.23333,-1.04444 -4.33889,-1.73333 -4.67778,-1.52222 -1.3,0.80555 -4.07222,6.51666 -6.55,13.5 -1.41667,4.01111 -3.34444,8.60555 -4.27778,10.21111 -4.24444,7.29444 -17.62222,16.45555 -30.35555,20.78333 -12.52222,4.26111 -22.40556,3.72778 -40.44445,-2.17778 -12.78333,-4.18333 -18.77777,-7.32222 -27.85,-14.59444 -3.14444,-2.52778 -6.04444,-4.38889 -6.43333,-4.15 -0.38889,0.23889 -2.23333,2.69444 -4.09444,5.45 -7.13889,10.58333 -16.23889,16.67778 -30.27778,20.28889 -12.91667,3.32778 -19.72222,3.07222 -32.62222,-1.22222 -11.89445,-3.96667 -24.78334,-12.05 -35.49445,-22.26111 -3.1,-2.96112 -5.91667,-5.38889 -6.26111,-5.38334 -0.33889,0 -1.53333,1.48334 -2.65,3.3 -8.26111,13.40556 -19.73889,22.05 -33.06111,24.90556 -4.28889,0.92222 -8.00556,1.03889 -21.50556,0.69444 -8.97777,-0.22222 -18.17777,-0.72222 -20.44444,-1.1 -5.44445,-0.90555 -13.09445,-4.61111 -19.53333,-9.45555 -2.87223,-2.16667 -5.32223,-3.81667 -5.44445,-3.67223 -0.12778,0.14445 -1.97778,2.98889 -4.11667,6.32778 -2.13888,3.33334 -5.38888,7.5 -7.21111,9.24445 -4.11111,3.93889 -11.48333,7.63889 -17.90555,8.98889 -6.19445,1.3 -28.63889,1.27777 -37.68334,-0.0444 z M 376.36667,874.1 c 4.73889,-1.74444 10.48889,-7.3 12.88333,-12.44444 1.37222,-2.95 1.71111,-4.77778 1.71667,-9.35556 0.0111,-9.24444 2.11111,-12.71667 7.71111,-12.71667 3.61111,0 6.16666,1.58334 13.82222,8.56111 5.68889,5.19445 14.46667,11.56667 18.44444,13.41112 2.83334,1.30555 5.57223,1.77222 14.14445,2.4 15.02222,1.09444 25.28333,0.63888 28.94444,-1.27778 7.56111,-3.96111 15.84445,-13.3 21.11667,-23.81667 4.08889,-8.13889 5.78889,-9.69444 10.62778,-9.69444 5.31666,0 8.67222,2.07222 18.43889,11.37222 11.98889,11.41667 24.61111,19.72778 35.50555,23.36667 3.74445,1.25555 5.71111,1.46666 11.53889,1.25555 6.62222,-0.24444 7.35556,-0.42778 12.85,-3.17778 6.35,-3.18333 12.37222,-8.1 15.57222,-12.72222 1.98334,-2.86667 2.06111,-3.27778 2.44445,-13.3 l 0.40555,-10.34444 2.22223,-2.22223 c 1.88888,-1.88888 2.72222,-2.21666 5.61666,-2.21666 4.21111,0 5.73334,1.27778 10.77778,9.02778 3.81111,5.86111 8.84444,10.92777 16.76667,16.87222 7.07222,5.31111 11.61111,7.49444 23.47777,11.3 15.61112,5.01111 18.85556,4.73333 34.28334,-2.9 7.93889,-3.92778 13.71111,-8.68334 16.66666,-13.72778 1.82223,-3.1 1.89445,-3.65556 2.31112,-16.75 0.44444,-13.93333 0.86666,-16.23889 3.40555,-18.61111 3.75556,-3.49445 9.70556,-2.08889 18.51667,4.38333 10.63889,7.81111 10.13889,7.63889 22.1,7.58889 15.42778,-0.0556 24.5,-3 32.32778,-10.46111 7.44444,-7.1 7.20555,-6.27778 7.60555,-26.65 0.23333,-12.01111 0.61667,-18.17778 1.18889,-19.17778 0.46111,-0.80555 1.79444,-1.86111 2.96667,-2.34444 3.72777,-1.54445 7.27777,-0.5 13.96111,4.12778 3.37222,2.33333 7.43333,4.7 9.02222,5.26111 9.42778,3.32777 19.13333,-1.35556 28.44444,-13.71111 4.44445,-5.88889 14.07778,-24.46667 16.18889,-31.21112 2.44445,-7.77777 1.16667,-41.80555 -2.03333,-54.31666 -0.6,-2.33889 -4.16667,-13.78334 -7.92778,-25.43334 -3.76666,-11.65 -8.13333,-26.02222 -9.71666,-31.94444 -5.24445,-19.66667 -14.91667,-46.56667 -23.1,-64.23889 a 517.31667,517.31667 0 0 1 -6.43889,-14.44444 c -1.23889,-2.97778 -2.39445,-5.55556 -2.56667,-5.72778 -0.17778,-0.17778 -3.47778,2.57778 -7.33333,6.11111 -7.85556,7.18889 -19.51667,14.86111 -24.87223,16.36667 -3.16666,0.88889 -3.78333,0.87222 -5.90555,-0.16111 -3.25,-1.57778 -4.96111,-4.17778 -5.33333,-8.11112 -0.42778,-4.39444 1.31666,-7.19444 6.46666,-10.36111 11.07222,-6.81111 14.32222,-9.26666 19.47778,-14.72222 8.44444,-8.95 11.72222,-13.71111 17.67778,-25.72222 5.86666,-11.83333 9.75,-21.35 11.41111,-27.94445 4.03889,-16.05555 4.18333,-40.57777 0.34444,-58.32777 -2.42777,-11.21667 -8.67777,-20.98334 -15.5,-24.22223 -2.33333,-1.10555 -2.66111,-1.11111 -4.77777,-0.05 -3.66112,1.83334 -27.92223,26.77778 -37.70556,38.77223 a 627.69444,627.69444 0 0 0 -16.68333,21.52222 c -7.63889,10.43889 -10.88889,13.62222 -13.9,13.62222 -2.27223,0 -5.51667,-3 -6.85,-6.33333 -1.22778,-3.07222 -0.76667,-5.85556 1.59444,-9.63889 2.63333,-4.21667 15.93333,-22.95556 18.97222,-26.72778 1.83889,-2.28333 3.34445,-4.47778 3.34445,-4.86667 0,-0.39444 -2.44445,-5.08888 -5.42222,-10.42777 -2.98334,-5.34445 -11.61667,-21.90556 -19.18889,-36.8 -16.37223,-32.21111 -17.17778,-33.66111 -30.15,-54.16667 -11.29445,-17.86111 -15.85556,-24.33333 -33.03334,-46.87222 a 1861.7111,1861.7111 0 0 1 -14.54444,-19.27222 c -1.45,-2.00556 -3.1,-3.64445 -3.66667,-3.64445 -0.56666,0 -3.69444,1.40556 -6.95555,3.12222 -6.80556,3.59445 -10.05556,3.99445 -13.07223,1.62223 -2.30555,-1.81667 -3.82777,-5.21112 -3.82777,-8.53889 0,-3.57778 3.78889,-7.44445 10.34444,-10.57223 15.55556,-7.41111 26.17778,-17.88888 31.72222,-31.27777 1.77778,-4.31111 1.96667,-5.61111 2.22778,-15.56667 0.33333,-12.3 -0.3,-15.64444 -4.46111,-23.59444 -2.68333,-5.11112 -7.90556,-11.88889 -10.86667,-14.07223 -1.49444,-1.11111 -2.20555,-1.26111 -3.12222,-0.68333 -1.57778,0.98889 -12.20555,14.95556 -20.27222,26.64444 -10.26667,14.87223 -16.96111,23.08889 -28.37778,34.83334 -11.97222,12.30555 -16.2,15.16666 -22.44444,15.16666 -3.25,0 -6.13889,-1.61111 -6.13889,-3.42777 0,-1.57223 1.66111,-4.74445 3.93889,-7.52778 1.35555,-1.65556 2.35555,-3.11111 2.21666,-3.23333 -1.76111,-1.54445 -14.7,-5.93889 -23.51666,-7.98334 -10.63889,-2.47222 -23.7,-3.56666 -47.56667,-4 -49.86111,-0.88889 -76.27222,2.4 -115.84444,14.42222 -35.1,10.66667 -51.71112,16.95 -69.92223,26.47778 -20.38889,10.66667 -43.14444,24.9 -54.51111,34.09445 -12.87778,10.42222 -30.38889,30.83333 -44.67222,52.05555 -4.87222,7.23889 -12.77778,21.79445 -12.50556,23.02222 0.12778,0.57778 2.38889,2.55 5.03889,4.37778 6.33889,4.38334 9.05,7.77778 9.05,11.33889 0,1.61667 -0.47222,3.19445 -1.16111,3.88333 -2.63333,2.63889 -6.27778,1.14445 -25.54444,-10.47777 -23.56111,-14.22223 -30.90556,-17.58334 -47.56667,-21.8 -18.04444,-4.56667 -22.36111,-5.21111 -35.07222,-5.24445 -11.73889,-0.0333 -16.46667,0.68334 -18.92222,2.87222 -1.611114,1.43334 -1.56667,5.67223 0.12222,13.87778 2.36667,11.46667 7.33333,19.89445 17.54444,29.76667 10.86111,10.5 18.85556,14.98889 35.82223,20.11111 a 273.16667,273.16667 0 0 1 11.96111,3.86667 c 13.54444,5.02222 26.29444,6.58889 36.11111,4.42777 5.90555,-1.29444 10.02222,-1.30555 11.08889,-0.0278 2.23333,2.68889 -1.5,7.68889 -8.31111,11.13889 -1.88334,0.95555 -3.72223,2.28888 -4.07778,2.96111 -0.82222,1.53889 -3.26111,19.23333 -4.22778,30.72222 -3.57778,42.4 -2.88333,69.01667 2.73333,104.11111 2.17778,13.62222 4.13334,29 5.87778,46.23333 1.42222,14.05556 3.62778,30.30556 5.26667,38.82223 0.74444,3.85555 2.11666,12.36666 3.05555,18.90555 2.68889,18.81111 9.23889,40.79445 20.85556,70.05556 15.5,39.01111 18.12222,45.73333 20.88889,53.51666 7.63889,21.48334 18.42222,48.38334 23.22778,57.93889 7.91666,15.73334 21.96666,31.08334 33.94444,37.09445 12.78333,6.41666 23.83889,9.20555 39.92222,10.07222 12.27778,0.66111 18.48889,0.25 23.34445,-1.53889 z M 348.96111,725.13889 c -3.3,-0.65556 -7.29444,-6.38889 -7.29444,-10.46111 0,-2.80556 3.02222,-6.20556 7.76666,-8.73889 16.52778,-8.83333 25.26111,-16.04445 32.47778,-26.83333 5.63889,-8.43334 7.82222,-13.32223 10.82222,-24.24445 2.5,-9.12778 2.58334,-9.76667 2.91667,-24.14444 0.36667,-15.98889 -0.15,-21.60556 -3.02778,-32.78889 -3.35555,-13.03334 -12.03333,-27.23889 -19.55555,-32.00556 -4.01111,-2.55 -5.48334,-2.55 -9,0 -3.2,2.31667 -22.36667,24.18889 -40.21111,45.88334 -13.88889,16.87777 -40.07778,44.66111 -46.82223,49.66666 -1.75,1.29445 -4.61111,2.73889 -6.35555,3.20556 -2.75,0.73333 -3.41667,0.69444 -4.95,-0.31111 -2,-1.31111 -2.93334,-4.72223 -2.2,-8.06667 0.29444,-1.32222 2.73889,-4.58889 6.41111,-8.56111 a 619,619 0 0 0 11.92222,-13.36667 c 3.29445,-3.81666 9.27222,-10.53889 13.28889,-14.92778 4.01667,-4.38888 17.04444,-19.89444 28.94444,-34.45 11.90556,-14.55555 23.46112,-28.08888 25.68334,-30.06666 5.15555,-4.59445 9.80555,-6.81111 15.51666,-7.38334 10.9,-1.08888 19.22223,2.73889 27.33334,12.58334 8.22222,9.97778 13.66666,21.85555 16.88889,36.84444 1.86666,8.68889 1.92222,9.52222 1.93333,31.15 0.006,20.51667 -0.11111,22.8 -1.57778,29.73889 -1.90555,9.01111 -3.81666,14.28333 -8.86111,24.42778 -4.5,9.03889 -8.92222,15.12778 -16.36667,22.52222 -10.68888,10.61667 -29.79444,21.5 -35.68888,20.33333 z m 125.3,-228.61667 c -5.68333,-0.96111 -11.66667,-4.57222 -17.66667,-10.66666 -6.15,-6.24445 -8.88888,-10.83334 -11.87222,-19.88334 -1.83889,-5.56666 -1.94444,-6.56111 -1.87778,-17.40555 l 0.0778,-11.5 -5.03889,-0.72778 c -9.89444,-1.42778 -17.37777,-6.55556 -21.36666,-14.65556 -2.14445,-4.36666 -2.27778,-5.07222 -2.27778,-12.06666 0,-6.44445 0.18889,-7.68889 1.44444,-9.38889 2.21111,-2.98334 4.68334,-3.96111 7.58889,-3 3.54445,1.16666 4.91667,3.40555 5.82222,9.48889 0.91667,6.16666 2.31667,8.95 5.59445,11.16666 2.57778,1.73334 7.15,2.08334 10.04444,0.76667 2,-0.91111 4.68334,-4.68889 5.85,-8.23333 0.43889,-1.33334 1.24445,-5.82223 1.78889,-9.96667 1.19445,-9.12778 2.33889,-10.86667 7.16111,-10.86667 4.2,0 6.53334,1.40556 10.16667,6.13889 3.76667,4.88334 5.63889,6.2 10.03333,7.03334 4.75556,0.9 8.33889,-0.0889 11.06667,-3.05556 3.01111,-3.27778 2.96667,-6.23889 -0.22222,-14.39444 -2.17222,-5.57778 -2.37222,-6.57223 -1.64445,-8.33334 1.06111,-2.55555 4.48334,-5.44444 6.43334,-5.42778 2.57222,0.0278 6.97222,2.42778 9.3,5.07223 3.03889,3.46111 3.93333,7.12777 3.92777,16.08889 -0.0111,6.63333 -0.25,8.27222 -1.86666,12.41111 -1.02778,2.62222 -1.86667,5.18333 -1.86667,5.69444 0,0.50556 1.05556,2.73333 2.35,4.95 2.75,4.72222 6.60556,14.78889 8.85,23.12778 1.35,5 1.59445,7.65555 1.61667,17.41111 l 0.0278,11.51111 -3.06667,6.2 c -2.48333,5.01111 -4.21111,7.33333 -9.02778,12.14445 -6.77778,6.76111 -11.42222,9.41666 -18.20555,10.4 -5.08889,0.73333 -8.66112,0.72222 -13.14445,-0.0333 z m 13.05556,-17.73889 c 4.26111,-2.12777 11.96666,-9.55555 13.70555,-13.21111 0.97222,-2.05555 1.22778,-4.28889 1.19445,-10.42222 -0.0278,-4.29444 -0.41111,-9.16667 -0.85556,-10.81667 -1.41111,-5.23889 -7.6,-20.52222 -9.07778,-22.39444 -1.33333,-1.70556 -1.75,-1.8 -7.85,-1.8 A 49.277778,49.277778 0 0 1 472.55,418.75 l -5.45,-1.4 -2,1.91667 c -1.1,1.05555 -3.15,4.23889 -4.55556,7.08333 -2.53888,5.12222 -2.55555,5.24444 -2.78333,15.12222 -0.12222,5.47222 0.1,12.05 0.5,14.61111 1.43889,9.23889 8.14445,18.70556 16.00556,22.6 4.81111,2.37778 8.41666,2.40556 13.05,0.1 z M 335.47222,474.95 c -4.53333,-4.53333 -3.93333,-8.01111 3.86111,-22.35 3.36667,-6.2 7.15556,-14.08889 8.41667,-17.52778 1.26111,-3.44444 2.75,-7.08333 3.31111,-8.09444 1.45,-2.62222 1.26667,-3.13334 -0.53889,-1.51111 -0.86111,0.77777 -6.25,3.83889 -11.98333,6.81666 -5.72222,2.97778 -13.30556,6.93334 -16.84445,8.78889 -8.11111,4.25556 -10.82222,4.44445 -14.57222,1.01111 -2.12222,-1.94444 -2.57778,-2.83889 -2.57778,-5.04444 0,-4.83333 3.73889,-8.16667 16.96112,-15.12222 8.56111,-4.50556 12.1,-7.02223 11.42222,-8.12223 -0.61111,-0.99444 -7.22778,-2.61111 -15.22222,-3.72222 -9.42223,-1.30555 -11.74445,-2.04444 -13.52778,-4.31111 -1.55,-1.97222 -1.93889,-7.62222 -0.68334,-9.96667 1.03334,-1.93888 4.34445,-3.43333 7.6,-3.43333 3.43334,0 28.42223,4.78889 39.94445,7.65556 13.98333,3.47777 17.21111,5.99444 18.05555,14.07222 0.96667,9.22222 -2.48333,21.23889 -11.4,39.73333 -8.42222,17.45556 -8.64444,17.84445 -11.81111,20.70556 -3.77777,3.41111 -7.27777,3.55555 -10.41111,0.41666 z m 273.90556,-94.66667 c -4.22222,-1.44444 -20.47222,-9 -30.21111,-14.05555 -15.24445,-7.91111 -17.47223,-10.31111 -17.52223,-18.91667 -0.0333,-5.61111 1.12778,-8.14444 6.9,-15.02222 a 208.10556,208.10556 0 0 0 14.77778,-19.74445 c 5.01111,-7.48888 9.13889,-12.2 11.95556,-13.65555 4.13889,-2.14445 8.66666,2.7 8,8.56667 -0.41667,3.71666 -2.66667,8.09444 -11.23334,21.87777 -3.61111,5.8 -6.5,10.61111 -6.41666,10.67778 0.0722,0.0722 4.97778,-2.27778 10.9,-5.21111 17.16666,-8.51111 23.05,-9.96111 26.98333,-6.65 4.01667,3.37778 4.38889,8.56667 0.87778,12.36111 -2.49445,2.70556 -4.07778,3.43889 -15.14445,7.03333 -6.62777,2.15556 -10.37222,3.77778 -12.03888,5.20556 -2.96112,2.53889 -3.13334,2.4 8,6.75 13.42777,5.25 16.83888,8.33333 16.13888,14.58889 -0.65555,5.80555 -5.6,8.36111 -11.97222,6.18889 z" />
</svg>
